<?xml version="1.0" encoding="utf-8"?>
<!-- Generator: Adobe Illustrator 16.0.0, SVG Export Plug-In . SVG Version: 6.00 Build 0)  -->
<!DOCTYPE svg PUBLIC "-//W3C//DTD SVG 1.1 Tiny//EN" "http://www.w3.org/Graphics/SVG/1.1/DTD/svg11-tiny.dtd">
<svg version="1.1" baseProfile="tiny" id="Premier_plan"
	 xmlns="http://www.w3.org/2000/svg" xmlns:xlink="http://www.w3.org/1999/xlink" x="0px" y="0px" width="92px" height="92px"
	 viewBox="0 0 92 92" xml:space="preserve">
<g>
	<g>
		<path fill="#FFFFFF" d="M46,5.333c-22.412,0-40.655,18.208-40.655,40.752c0,22.372,18.242,40.581,40.655,40.581
			s40.654-18.209,40.654-40.581C86.654,23.542,68.412,5.333,46,5.333z"/>
		<path fill="#3C91DC" d="M46,92C20.575,92,0,71.463,0,46.083C0,20.537,20.575,0,46,0c25.426,0,46,20.537,46,46.083
			C92,71.463,71.426,92,46,92z M46,6.846c-21.578,0-39.142,17.531-39.142,39.237c0,21.54,17.563,39.071,39.142,39.071
			s39.143-17.531,39.143-39.071C85.143,24.377,67.578,6.846,46,6.846z"/>
		<path fill="#3C91DC" d="M62.917,55.029c0-6.084-3.778-9.61-8.286-10.219v-0.121c3.352-0.608,6.885-3.954,6.885-8.394
			c0-9.306-8.592-10.888-15.599-10.888H29.831v42.94h15.416C53.412,68.35,62.917,65.855,62.917,55.029z M52.438,37.573
			c0,4.927-5.059,4.865-8.288,4.865h-4.753v-9.853h4.631C47.137,32.586,52.438,32.464,52.438,37.573z M53.352,54.785
			c0,5.597-3.961,6.447-8.41,6.447h-5.545V49.251h5.058C47.563,49.251,53.352,49.434,53.352,54.785z"/>
	</g>
</g>
</svg>
