<?xml version="1.0" encoding="UTF-8"?>
<svg width="814.8" height="389.8" version="1.1" viewBox="0 0 215.6 103.1" xmlns="http://www.w3.org/2000/svg">
    <g transform="translate(-667.8 -89.74)">
        <path d="m762 107.9-20.21 35h11.55l8.66-15 8.66 15h-17.32l5.773 10h17.32l16.78 29.06c1.319-1.054 2.583-2.175 3.787-3.355v-10.09zm-25.98 45-4.33 7.499c1.798 3.115 4.066 5.934 6.723 8.358l9.155-15.86z" color="#000000" color-rendering="auto" dominant-baseline="auto" fill="#fff" image-rendering="auto" shape-rendering="auto" solid-color="#000000" stop-color="#000000" style="font-feature-settings:normal;font-variant-alternates:normal;font-variant-caps:normal;font-variant-east-asian:normal;font-variant-ligatures:normal;font-variant-numeric:normal;font-variant-position:normal;font-variation-settings:normal;inline-size:0;isolation:auto;mix-blend-mode:normal;shape-margin:0;shape-padding:0;text-decoration-color:#000000;text-decoration-line:none;text-decoration-style:solid;text-indent:0;text-orientation:mixed;text-transform:none;white-space:normal"/>
        <path transform="scale(.2646)" d="m3059 540c-24.14 0-27.64 9.753-27.64 27.64v161.3h37.8v-119.2c0-27.51 0.5324-32.37 44.11-32.23 17.51 0.0571 43.21 4.723 42.82 32.67v118.8h39.09v-2e-3l84.51 2e-3v-0.0117c0.2951 3e-3 0.5892 0.0117 0.8847 0.0117 16.04 0 30.54-5.634 41.49-16.46 10.95-10.83 16.83-24.96 16.83-40.38 0-11.25-3.384-21.94-9.877-31.04l-0.043-0.0508-0.041-0.0586c-7.078-9.606-19-17.07-34.89-25.98-7.385-4.143-16.35-8.566-21.83-15.2l-0.1172-0.1562-0.1308-0.1465c-2.941-3.443-3.787-5.996-3.787-8.631 0-3.613 0.9471-5.869 4.178-8.836 3.196-2.935 6.292-4.242 11.03-4.242h55.51v-37.79h-54.62c-14.72 0-28.14 5.095-38.3 14.9-10.09 9.737-15.44 22.91-15.44 37.36 0 11.18 3.32 21.73 9.736 30.57 6.764 9.659 17.89 17.53 33.26 25.27 13.1 6.747 21.28 12.81 23.11 15.02 2.556 3.08 3.58 5.916 3.58 9.906 0 4.596-1.424 7.929-5.795 11.94-4.157 3.802-8.487 5.482-14.73 5.482h-84.51v-58.78c-0.153-21.99-2.28-38.65-7.566-50.99-5.311-12.5-15.19-23.04-26.69-29.79-14.04-8.247-31.37-10.88-47.65-10.88z" color="#000000" color-rendering="auto" dominant-baseline="auto" fill="#1fad95" image-rendering="auto" shape-rendering="auto" solid-color="#000000" stop-color="#000000" style="font-feature-settings:normal;font-variant-alternates:normal;font-variant-caps:normal;font-variant-east-asian:normal;font-variant-ligatures:normal;font-variant-numeric:normal;font-variant-position:normal;font-variation-settings:normal;inline-size:0;isolation:auto;mix-blend-mode:normal;shape-margin:0;shape-padding:0;text-decoration-color:#000000;text-decoration-line:none;text-decoration-style:solid;text-indent:0;text-orientation:mixed;text-transform:none;white-space:normal"/>
        <path d="m694.3 102.9c-4.898 0-9.437 1.101-13.46 3.315-3.995 2.184-7.222 5.31-9.547 9.242l-2e-3 2e-3v2e-3c-2.301 3.911-3.471 8.247-3.471 12.83 0 6.75 2.562 12.75 7.443 17.46l4e-3 2e-3 2e-3 4e-3c4.927 4.726 11.28 7.141 18.55 7.141h29.47l-5.3e-4 -10c1.6e-4 4.667-2e-5 -9.394 0-10.03 2.7e-4 -8.172 4.293-11.54 10.62-11.54h12.72v-11.09h-13.9c-15.37 0-19.67 11.09-19.67 21.82l-0.0331 0.199v10.64h-18.94v-5.3e-4c-5e-3 0-9e-3 5.3e-4 -0.0134 5.3e-4 -3.071 0-5.721-0.6584-8.098-1.959-2.372-1.298-4.177-3.067-5.551-5.451-1.389-2.437-2.055-4.928-2.055-7.629 0-4.219 1.392-7.531 4.397-10.47l4e-3 -2e-3c2e-3 -2e-3 2e-3 -4e-3 4e-3 -6e-3 3.01-2.916 6.604-4.326 11.3-4.326 4.377 0 7.827 1.145 10.69 3.578l5.972-8.543c-2.109-1.603-4.618-2.85-7.486-3.779l-8e-3 -2e-3c-2.878-0.9394-5.869-1.41-8.934-1.41z" color="#000000" color-rendering="auto" dominant-baseline="auto" fill="#1f95ad" image-rendering="auto" shape-rendering="auto" solid-color="#000000" stop-color="#000000" style="font-feature-settings:normal;font-variant-alternates:normal;font-variant-caps:normal;font-variant-east-asian:normal;font-variant-ligatures:normal;font-variant-numeric:normal;font-variant-position:normal;font-variation-settings:normal;inline-size:0;isolation:auto;mix-blend-mode:normal;shape-margin:0;shape-padding:0;text-decoration-color:#000000;text-decoration-line:none;text-decoration-style:solid;text-indent:0;text-orientation:mixed;text-transform:none;white-space:normal"/>
        <text x="347.67938" y="59.921459" font-family="'Rounded Elegance'" font-size="10.58px" stroke-width=".2646" style="line-height:1.25" xml:space="preserve"><tspan x="347.67938" y="59.921459" stroke-width=".2646"/></text>
        <path d="m762 92.87c-13.69-1.4e-5 -26.08 5.5-35.11 14.41 1.801-0.3711 3.74-0.5695 5.813-0.5695h12.18c5.189-2.461 10.99-3.84 17.12-3.84 20.16-1.1e-4 37.17 15 39.69 35l10.06 2.1e-4c-2.568-25.55-24.07-45-49.75-45zm-20.21 50 5.773 10h11.55l-5.773-10zm-27.5 15c6.372 20.29 25.32 35 47.71 35 9.627 2e-5 19.05-2.779 27.13-8.003l-5.008-8.674c-6.558 4.355-14.25 6.677-22.13 6.678-16.79 6e-5 -31.16-10.34-37.09-25z" fill="#ad1f1f" stroke-linecap="round" stroke-width="10" style="paint-order:normal"/>
        <path d="m814.3 112.6c-1.386-2.38-4.436-3.19-6.82-1.813l-19.07 16.78 24.07-8.124c2.392-1.381 3.211-4.439 1.83-6.83 0-6e-3 -0.01-0.0113-0.01-0.0171z" fill="#1fad95" stroke-linecap="square" stroke-width="5"/>
        <path d="m792.1 90.4c-2.39-1.368-5.436-0.545-6.813 1.84l-8.124 24.07 16.78-19.07c1.381-2.391 0.5614-5.449-1.83-6.83-9e-3 -5e-3 -0.0112-0.0067-0.0173-0.01002z" fill="#1f95ad" stroke-linecap="square" stroke-width="5"/>
    </g>
</svg>
