<?xml version="1.0" encoding="UTF-8" standalone="no"?>
<!-- Generator: Adobe Illustrator 19.1.1, SVG Export Plug-In . SVG Version: 6.00 Build 0)  -->

<svg
   xmlns:dc="http://purl.org/dc/elements/1.1/"
   xmlns:cc="http://creativecommons.org/ns#"
   xmlns:rdf="http://www.w3.org/1999/02/22-rdf-syntax-ns#"
   xmlns:svg="http://www.w3.org/2000/svg"
   xmlns="http://www.w3.org/2000/svg"
   xmlns:sodipodi="http://sodipodi.sourceforge.net/DTD/sodipodi-0.dtd"
   xmlns:inkscape="http://www.inkscape.org/namespaces/inkscape"
   version="1.1"
   x="0px"
   y="0px"
   viewBox="0 0 272.0194 266.77454"
   xml:space="preserve"
   id="svg60"
   sodipodi:docname="cof.svg"
   width="272.01941"
   height="266.77454"
   inkscape:version="0.92.5 (2060ec1f9f, 2020-04-08)"><metadata
   id="metadata66"><rdf:RDF><cc:Work
       rdf:about=""><dc:format>image/svg+xml</dc:format><dc:type
         rdf:resource="http://purl.org/dc/dcmitype/StillImage" /></cc:Work></rdf:RDF></metadata><defs
   id="defs64" /><sodipodi:namedview
   pagecolor="#ffffff"
   bordercolor="#666666"
   borderopacity="1"
   objecttolerance="10"
   gridtolerance="10"
   guidetolerance="10"
   inkscape:pageopacity="0"
   inkscape:pageshadow="2"
   inkscape:window-width="1908"
   inkscape:window-height="985"
   id="namedview62"
   showgrid="false"
   inkscape:zoom="2.3480126"
   inkscape:cx="97.531544"
   inkscape:cy="84.054703"
   inkscape:window-x="0"
   inkscape:window-y="0"
   inkscape:window-maximized="0"
   inkscape:current-layer="svg60" />

<g
   id="poisson_2"
   transform="translate(-5.7637659,-9.0662165)"
   style="fill:#ffffff">
	<g
   id="g25"
   style="fill:#ffffff">
		<path
   d="m 143.4,16.1 c -0.1,0.4 0.3,0.8 0.7,0.5 1.3,-0.9 8.3,3.8 9.5,4.5 2.8,1.8 5.4,5 7.3,7.8 0.7,1 1.5,2.2 2.2,3.3 0.1,0 0.1,0 0.2,0.1 0.4,0.3 0.9,0.6 1.2,1.1 0,0 0.1,0.1 0.1,0.1 0,0 0,0 0,0 0.1,0.2 0.2,0.3 0.4,0.5 0,0 0,0 0,0 0,0 0,0 0,0 0,0 0.1,0.1 0.1,0.1 0.1,0.1 0.1,0.1 0.1,0.2 0.9,1.2 2,2.4 3,3.5 0.2,-0.3 0.4,-0.5 0.7,-0.8 -0.2,-0.1 -0.4,-0.4 -0.4,-0.6 -0.2,0.1 -0.4,0.1 -0.6,-0.1 -0.2,0 -0.4,-0.1 -0.5,-0.3 0,0 0,-0.1 0,-0.1 -0.1,0 -0.3,0 -0.5,-0.1 -0.8,-0.8 -1.1,-1.9 -1.5,-2.9 0,0 0,0 0,-0.1 0,0 0,0 0.1,-0.1 -0.5,-1 -1,-2.1 -1.3,-3.2 -0.1,-0.5 0.5,-0.7 0.8,-0.3 0.5,0.7 1,1.5 1.4,2.3 0,-0.1 0.1,-0.2 0.2,-0.2 -0.4,-0.9 -0.9,-1.8 -0.8,-2.9 0,-0.2 0.3,-0.3 0.4,-0.1 0.4,1 1,1.9 1.6,2.9 -0.3,-1.6 -0.6,-3.3 -0.5,-4.9 0,-0.3 0.4,-0.3 0.5,-0.1 0.3,1 0.6,2 0.9,3.1 0,-0.4 0.1,-0.8 0.2,-1.1 0.1,-0.3 0.4,-0.2 0.5,0 0.5,1.2 0.7,2.5 0.9,3.8 0,-0.2 0,-0.3 -0.1,-0.5 0,1.1 -0.1,2.3 -0.2,3.4 0.2,-0.2 0.5,-0.3 0.7,-0.4 0.6,-8.4 -1.2,-16.4 -4.5,-24.1 0.2,-0.1 0.3,-0.4 0.1,-0.7 C 165.4,9.1 164,9 163,9.1 c -0.9,0 -1.7,0.4 -2.4,0.9 -0.1,0 -0.2,0 -0.3,0.1 -2.1,-0.5 -4.3,0.2 -5.5,1.9 -1.2,-1.4 -4.8,-0.7 -6.3,-0.5 -2.2,0.4 -6.1,1.4 -5.3,4.4 0.1,0.1 0.2,0.1 0.2,0.2 z m 18.1,-5.8 c 0,0 0,0 0,0 0,0 0,0 0,0 0,0 0,0 0,0 0.9,0.7 1.6,2.6 1.8,3.2 1.4,3.5 2.8,7.2 2.1,11 0,0.3 -0.4,0.2 -0.5,0 -0.6,-1.7 -0.3,-3.5 -0.7,-5.3 -0.3,-1.1 -0.6,-2.3 -1,-3.4 -0.3,-0.8 -1.2,-4.6 -2.4,-5.1 0,-0.1 -0.1,-0.1 -0.2,-0.1 -0.2,-0.4 0.6,-0.8 0.9,-0.3 z m -6.6,2.3 c 0,0 0.1,-0.1 0.1,-0.1 0.2,-0.2 0.6,-0.1 0.7,0.1 0.1,0 0.1,0 0.2,0 1.5,0.8 2.1,2.7 3,4.1 1.5,2.7 3,5.2 3.5,8.3 0.1,0.4 -0.5,0.7 -0.7,0.3 -1,-2 -1.4,-4.2 -2.4,-6.1 -0.8,-1.4 -2.5,-5.1 -4.1,-5.8 0,0 0,0 -0.1,0 -0.4,-0.2 -0.5,-0.5 -0.2,-0.8 z"
   id="path11"
   inkscape:connector-curvature="0"
   style="fill:#ffffff" />
		<path
   d="m 174.8,59 c -0.2,0.2 -0.6,0.1 -0.7,-0.1 0,0 -0.1,-0.1 -0.1,-0.1 -1.7,-5.9 -7,-10.7 -11.7,-14.6 -5.4,-4.4 -12.6,-7.8 -19.2,-10 -6.2,-2.1 -14,-2.4 -20.6,-2 -7.3,0.4 -14.6,2.7 -19.9,7.9 -0.5,0.5 -1.2,-0.2 -0.8,-0.8 3.9,-5 11.4,-7 17.4,-7.9 7.9,-1.1 17.5,-1.1 25.2,1.3 7.4,2.3 15,5.8 20.8,11 2.1,1.9 4.7,4.2 6.7,6.8 0,0 0,0 0,0 0,0 0.1,0.1 0.1,0.1 0,0.1 0.1,0.2 0.2,0.4 0.1,0.2 0.3,0.4 0.4,0.7 0.2,0.3 0.5,0.6 0.7,1 0.7,1.4 1.5,3.1 1.9,4.7 0.1,-0.1 0.1,-0.2 0.1,-0.3 -0.1,-0.8 -0.2,-1.6 -0.3,-2.5 0,-0.1 0,-0.1 -0.1,-0.1 -0.2,-1.3 -0.5,-2.6 -0.8,-3.9 -0.1,-0.2 -0.1,-0.3 -0.2,-0.5 0,0 -0.1,-0.1 -0.1,-0.2 -0.3,-0.8 -0.5,-1.6 -0.8,-2.4 -1,-2.6 -2.4,-5.1 -4,-7.4 -1.2,-1.6 -2.6,-3 -3.8,-4.5 0,0 0,0 -0.1,0 -0.3,-0.3 -0.5,-0.6 -0.8,-1 -5.5,-5.4 -12.6,-9.1 -20.3,-10.2 -7.9,-1.1 -17.8,-0.8 -25.6,0.9 -6.6,1.4 -14,5.1 -17.8,10.9 0,0 0,0.1 0,0.1 C 93,34.4 84.7,34.3 76.9,34.2 69.5,34 62,34.9 54.9,37 40.8,41.1 26.2,47.4 18.6,60.6 c -0.1,0.2 -0.1,0.4 -0.1,0.5 -0.7,1.3 -0.2,4.1 0.3,5 0.3,0.6 0.6,0.7 1,1.2 1,1.2 1.5,2.3 1.8,4 0.4,2.6 0.4,4.9 1.1,7.4 0.1,0.2 0.2,0.4 0.3,0.4 0.2,-0.2 0.3,-0.4 0.5,-0.7 0.2,-0.3 0.4,-0.6 0.5,-0.9 0,0 0,0 0,0 v 0 c 0,0 0,0 0,0 0,0 0,0 0,0 2,-3.2 4.4,-6.2 7,-8.9 2.9,-3.2 6,-7.1 10,-9 0.2,-0.1 0.4,0.2 0.2,0.4 -3.4,2.6 -6.3,6.5 -9.1,9.7 -3.3,3.7 -6.2,7.7 -8.6,12 -0.4,3.4 0.2,6.6 2,9.5 0.5,0.8 0.9,1.5 1.2,2.3 0.3,-2 0.4,-3.9 1.3,-5.8 1,-2.3 2.5,-4.1 3.8,-6.3 0.1,-0.2 0.4,0 0.3,0.2 -2.1,4.1 -3.8,8.5 -4.9,12.9 0,0.1 0.1,0.1 0.1,0.2 0.6,2.1 0.8,2.8 2.2,4.7 0.4,0.5 0.7,0.9 1,1.4 1,-2.3 2,-4.5 2.8,-6.8 1,-3.4 1.7,-6.9 3.1,-10.1 2.8,-6.5 8,-12 12.4,-17.5 8.9,-11.3 23.1,-19.6 37.2,-22.1 0.5,-0.1 0.7,0.6 0.2,0.8 -0.6,0.2 -1.1,0.4 -1.7,0.7 -1,0.3 -2,0.7 -2.9,1.1 -0.6,-0.1 -1.1,0.1 -1.6,0.3 -0.1,0 -0.1,0.1 -0.2,0.1 -1,0.4 -1.9,0.8 -2.9,1.1 -0.8,0.5 -1.6,0.9 -2.3,0.9 -3.8,2.2 -7.4,4.8 -10.8,7 -5.1,3.4 -8.8,8.4 -12.5,13.2 -7.9,10.3 -14.3,22 -11.4,35.3 -0.3,0.4 -0.3,1.1 0.2,1.3 2.9,1.6 4.3,4 5.1,7.1 0.5,2.1 0.3,4.8 1.2,6.8 0.6,1.3 1.2,1.9 2.3,2.6 2.8,1.8 4.6,2.8 6.7,5.5 1.9,2.4 4.2,4.1 6.7,5.7 1.2,0.8 1.7,0.7 3.2,0.8 3.6,0.2 6.9,0.9 10.5,1.6 0.6,0.6 1.9,0.2 1.6,-0.8 -2.5,-7.8 -6.9,-14.4 -6.8,-23 0.2,-8.8 2.2,-18 5,-26.3 2.7,-8.1 6.3,-15.5 10.3,-23 1.7,-3.1 3.4,-5.8 5.7,-8.5 2.4,-2.8 5.1,-6.7 8.5,-8.4 0.2,0.1 0.4,0.2 0.6,0 1.2,-0.7 2.3,5.8 2.6,6.6 1.7,4.3 5.7,8.1 9,11.2 4.5,4 10.7,8.1 17,8.6 0,0 0,0 0,0 1.6,0 3.1,0.2 4.7,-0.1 0,-0.6 0,-1.4 0.2,-1.9 0,-0.1 0,-0.1 0,-0.2 0.1,-0.1 0.1,-0.2 0,-0.2 0.1,-0.5 0.2,-1.1 0.3,-1.6 0,-0.1 0.1,-0.2 0.2,-0.3 0.4,-3.1 2.3,-6.3 4.1,-8.5 2.7,-3.3 6.7,-4.7 10.8,-5 7.2,-0.6 16.6,2.9 16,11.2 0,0.1 0,0.1 0,0.2 0,0.4 -0.1,0.8 -0.1,1.2 0.1,0.1 0.2,0.2 0.3,0.3 1.5,1.1 4.4,-1.5 5.4,-2.4 1.6,-1.5 3.2,-3.3 3.8,-5.5 0.2,-0.3 0,-0.6 -0.2,-0.8 z M 50.4,97 c -0.1,0.4 -0.6,0.2 -0.6,-0.2 1.4,-7.6 4.1,-14.7 7.5,-21.7 0.1,-0.2 0.4,0 0.3,0.2 -3,7.1 -4.8,14.4 -7.2,21.7 z m 9.6,3.5 c -2.7,6.4 -2.4,14.3 -3.8,21.1 -0.1,0.6 -1.1,0.4 -1,-0.1 0.1,-4.1 1.2,-8 1.8,-12.1 0.5,-3.2 1,-6.3 2.5,-9.2 0.1,-0.3 0.6,0 0.5,0.3 z m 6.3,-59.2 c 9.6,-2.9 18.9,-4.7 28.9,-3.3 0.3,0 0.3,0.6 0,0.7 -4.1,1 -8.4,0.2 -12.6,0.5 -5.4,0.4 -10.8,1.7 -16.1,2.7 -0.4,0 -0.6,-0.5 -0.2,-0.6 z M 54.5,54.7 C 54.3,54.9 53.9,54.5 54.2,54.3 64.7,45.7 79,40.3 92.6,40 c 0.3,0 0.4,0.5 0.1,0.6 -13.6,2.6 -26.9,5.5 -38.2,14.1 z m 38.1,-7.2 c -6.1,5 -10.7,10.3 -15.5,16.5 -2.6,3.4 -5.3,7 -7.4,10.7 -1.9,3.3 -3,7.1 -4.7,10.5 -0.3,0.6 -1.5,0.2 -1.2,-0.5 C 67,76.8 71,70.1 76.1,63.2 80.8,56.9 85.4,51.1 92.2,47 c 0.3,-0.1 0.7,0.3 0.4,0.5 z m 4.2,-3.1 c -5.5,1.3 -10.7,2.5 -15.6,5.5 -4.4,2.8 -9.1,6.6 -13,10.1 -0.2,0.2 -0.4,-0.1 -0.3,-0.3 7.3,-8.2 17.1,-16.3 28.6,-16.5 0.8,0.1 0.9,1.1 0.3,1.2 z m 37.1,25 c -2.6,0.4 -5.4,-0.5 -7.8,-1.3 -1.8,-0.6 -4.9,-1.4 -6.2,-2.9 -0.2,-0.2 0,-0.7 0.3,-0.6 2,0.7 4.2,1.2 6.3,1.9 2.4,0.8 4.9,1.1 7.3,1.6 0.7,0.1 0.7,1.2 0.1,1.3 z"
   id="path13"
   inkscape:connector-curvature="0"
   style="fill:#ffffff" />
		<path
   d="m 135,75.9 c 0,0 -0.1,0 -0.1,0 0,0.1 0,0.1 0,0.2 0,0.1 -0.1,0.2 -0.1,0.3 0,-0.1 0.1,-0.1 0.1,-0.2 -0.2,0.3 -0.4,0.6 -0.6,0.8 -0.9,1.3 -1.8,2.9 -3.2,3.5 -0.5,0.2 -0.9,-0.4 -0.8,-0.8 0.1,-0.3 0.2,-0.6 0.3,-0.8 -0.1,0.2 -0.3,0.3 -0.4,0.5 -0.6,0.7 -1.3,1.5 -2,2 -1,0.7 -2.2,1 -3.2,1.7 -0.4,0.3 -0.8,-0.3 -0.5,-0.6 0.8,-0.7 1.7,-1.1 2.5,-1.7 0.9,-0.7 1.7,-1.8 2.4,-2.8 0.5,-0.7 1,-1.5 1.5,-2.3 -1.2,1.8 -2.8,3.3 -4.8,4.4 -0.4,0.2 -1,-0.4 -0.5,-0.7 1.1,-0.9 2.2,-1.9 3.1,-2.9 -0.4,0.3 -0.8,0.7 -1.2,1 -2,1.6 -4.2,2.5 -6.6,3.5 -0.5,0.2 -1.1,-0.4 -0.6,-0.8 1.8,-1.4 3.9,-2.1 5.6,-3.6 0,0 -0.1,0 -0.1,0.1 0.1,0 0.2,-0.1 0.2,-0.1 0.8,-0.4 1.6,-0.9 2.4,-1.4 0.1,-0.1 0.2,-0.1 0.3,-0.1 0.3,-0.3 0.6,-0.7 0.9,-1 -0.6,-0.1 -1.3,-0.2 -1.9,-0.3 -3.7,2.4 -8.8,4 -12.7,4.7 -5.6,1 -11.3,-0.6 -16.7,0.5 -0.5,0.1 -0.5,0.7 -0.2,0.9 -0.3,0.3 0,0.9 0.5,0.9 2.6,-0.4 1.9,1.8 2.6,3.3 0.3,0.7 0.8,1.2 1.5,1.5 0.5,0.2 1.2,0.3 2,0.4 0,0.1 0.1,0.2 0.1,0.3 1.2,1.4 1,3.5 2.9,4.2 1.1,0.4 2.8,0.7 4.1,0.3 0.2,0.1 0.5,0.1 0.7,0.2 1,0.1 2,-0.2 3,-0.2 1.6,-0.1 3.1,0.6 4.6,0.4 0.1,0.2 0.4,0.3 0.6,0.1 3.4,-2.7 6.9,-4.6 10,-7.7 2.1,-2.2 3.6,-4.3 4.6,-6.9 0,0 0,-0.1 0,-0.1 -0.1,-0.3 -0.2,-0.5 -0.3,-0.7 z M 106.3,86 c -0.7,-0.2 -0.9,-1.4 -0.1,-1.8 0.3,0 0.6,-0.1 0.9,0 0.1,0 0.2,0.1 0.2,0.1 0.8,-0.3 1.6,-0.5 2.4,-0.6 1.8,-0.3 3.6,-1.7 5.5,-1.3 0.4,0.1 0.3,0.6 -0.1,0.7 -1.6,0.2 -3,1.3 -4.6,1.7 -1.4,0.1 -2.8,0.6 -4.2,1.2 z m 15.9,-2.8 c -1,0.5 -1.6,1.5 -2.5,2.2 -0.7,0.6 -1.5,1.1 -2.3,1.6 -1.2,0.8 -2.4,1.1 -3.7,1.6 -0.7,0.2 -1.9,0.7 -1.3,1 0,0 -0.1,0 -0.1,-0.1 -0.1,0.1 -0.2,0.1 -0.3,0.2 -0.6,0.4 -1.1,0.1 -1.3,-0.4 0,0.1 0,0.1 0,0.2 0,-0.2 0,-0.3 0.1,-0.5 0.6,-1.3 3.1,-1.5 4.3,-2 1.3,-0.5 2.7,-1.3 3.8,-2.1 1,-0.7 1.8,-1.8 3.1,-2.1 0.2,0 0.4,0.3 0.2,0.4 z"
   id="path15"
   inkscape:connector-curvature="0"
   style="fill:#ffffff" />
		<path
   d="m 156,65.7 c -0.2,-1.8 0.4,-3.9 1.6,-5.4 0.5,-0.7 1.3,-1.2 2.1,-1.5 -3,-1.6 -6.9,-2.3 -10,-2.1 -3.7,0.3 -7,1.5 -9.4,4.4 -1.4,1.7 -3.3,4.7 -4.1,7.3 0.1,0.2 0.2,0.4 0.2,0.7 -0.7,4.8 0.7,9.2 5.9,10.5 3.1,0.8 7.4,0.8 10.3,-0.3 4,-1.6 8.8,-6 10.7,-9.9 0.2,-0.4 0.4,-0.9 0.5,-1.3 -2.5,1.9 -7.4,1.1 -7.8,-2.4 z"
   id="path17"
   inkscape:connector-curvature="0"
   style="fill:#ffffff" />
		<path
   d="m 162,63.5 c -0.1,0 -0.1,0 -0.2,0 0,0 0,0 0,0 0,0 0,0 0,0 -1.4,0.1 -1.5,2.3 0,2.5 1.6,0.1 1.8,-2.3 0.2,-2.5 z"
   id="path19"
   inkscape:connector-curvature="0"
   style="fill:#ffffff" />
		<path
   d="m 176.4,50.6 v 0 c -0.1,1.3 1.9,1.5 2,0.2 v 0 c 0.1,-1.2 -1.9,-1.4 -2,-0.2 z"
   id="path21"
   inkscape:connector-curvature="0"
   style="fill:#ffffff" />
		<path
   d="m 179.9,39.1 c -3.1,-3.4 -7.8,-3.5 -11.2,-0.7 0.7,0.8 1.4,1.7 2,2.7 1.5,2.5 2.5,5 3.4,7.6 0.6,-0.8 1.5,-1.4 2.6,-1.6 1.1,-0.2 2.5,-0.2 3.5,0.4 0.5,0.3 1,0.7 1.2,1.3 1.3,-3.2 0.5,-7.5 -1.5,-9.7 z"
   id="path23"
   inkscape:connector-curvature="0"
   style="fill:#ffffff" />
	</g>
	<g
   id="g41"
   style="fill:#ffffff">
		<path
   d="m 271.9,85.9 c 0,-0.1 -0.1,-0.1 -0.1,-0.1 0.1,0 0.2,-0.1 0.3,-0.1 0.3,-0.1 0.2,-0.5 -0.1,-0.4 -1.8,0.3 -3.5,1.3 -5.3,1.7 -2.7,0.6 -4.8,0.1 -7.4,-0.2 -2.3,-0.3 -3.9,0.7 -4.6,2.8 -0.2,0.6 0.7,0.9 1,0.4 1.1,3.3 2,6.6 2.6,9.8 2.3,12 2.8,24.6 -0.2,36.5 -1.4,5.7 -3.5,11.2 -6.2,16.5 -1.4,2.7 -2.8,7.2 -5.6,8.8 -0.7,0.4 -1.5,-0.6 -0.9,-1.2 2.3,-2.3 3.8,-7.2 5.2,-10.1 2.4,-4.9 4.2,-10.1 5.5,-15.4 2.5,-10.5 2.4,-21.1 0.8,-31.8 -0.8,-5.1 -2.4,-9.6 -4,-14.4 -1.7,-4.9 -3.9,-10.8 -9.7,-11.3 -2.7,-0.2 -4.3,-0.8 -6.3,-2.6 -2.7,-2.4 -5.5,-6 -9.4,-5.6 -0.3,0 -0.5,-0.1 -0.5,-0.4 -0.1,0.1 -0.2,0.2 -0.5,0.2 -5.2,0.5 -9,-3.7 -14.2,-3 -4,0.5 -7.3,4.1 -11.4,3.9 5,3 9.3,7.8 14,11 2.8,2 7.6,4.4 7.1,8.4 -0.1,0.7 -1.1,1.2 -1.5,0.4 -2.6,-5.3 -8.7,-8.6 -13.1,-12.6 -1.9,-1.7 -4.8,-4.8 -7.2,-5.8 -3,-1.2 -1,-0.5 -2.7,0.1 -1,0.4 -2.2,1.2 -3.2,1.7 0,0 0.1,0.1 0.1,0.1 -0.4,-0.6 -1.4,-0.1 -1,0.6 4,6.5 12.5,8.2 17.6,13.7 6.4,6.8 12.8,14.5 16.7,23 8.2,17.6 9.8,40.1 0.9,57.8 -0.1,0.2 -0.1,0.3 0,0.4 -15.3,6.4 -29.6,15.8 -37.1,31 -3.9,7.8 -6.4,16 -5.6,24.8 0.4,4.6 1,9.2 2,13.7 0.7,3 1.2,6.2 3.4,8.5 0.1,0.1 0.2,0.1 0.3,0.2 0,0.3 0.2,0.5 0.5,0.6 7.6,4.1 20.2,-0.5 25.5,-6.6 0,0 0,0 0,0 0,0 0,0 0,0 -0.5,-0.1 -1.1,-0.7 -1.4,-1 0,0 0,0 0,0 -0.2,-0.2 -0.5,-0.5 -0.7,-0.9 -0.2,-0.2 -0.3,-0.4 -0.5,-0.5 -0.1,-0.1 -0.1,-0.2 -0.1,-0.3 -2.4,-1.3 -3.5,-4.4 -3.3,-7.1 0,-0.2 0,-0.3 0,-0.5 -0.3,-1.3 -0.1,-3 0.3,-4.1 0.1,-0.2 0.2,-0.2 0.3,-0.3 1.1,-3.5 7.1,-8.4 8.7,-9.3 4.4,-2.7 13.5,-5.4 18.7,-2.4 0.2,0.1 0.4,0.2 0.6,0.4 0,0 0,0 0,0 0.2,0.1 0.4,0.3 0.6,0.5 1.1,-1.7 1.4,-3.6 1.8,-5.6 0.8,-3.7 1.8,-7.4 2,-11.2 0.5,-8 -3.8,-15.3 -3.3,-23.3 3.1,-0.8 6.4,-3.2 9,-4.9 3,-1.9 5.4,-5.2 7.4,-8.1 2.8,-3.9 5.7,-7.6 7.8,-11.9 2.2,-4.6 3.7,-9.5 5.9,-14.1 7.7,-16.5 9.1,-34.1 0.5,-50.4 z M 232,82.6 c -1.1,-2.1 -1.3,-4.5 -2.6,-6.6 -1,-1.6 -2.4,-3.2 -2.9,-5.1 -0.1,-0.4 0.4,-0.6 0.6,-0.3 2.5,3.8 4.9,7 5.5,11.7 0.2,0.4 -0.4,0.7 -0.6,0.3 z m -35.7,149.1 c -1,3.5 -0.6,7.4 -1.5,10.9 -0.1,0.4 -0.7,0.4 -0.8,0 -0.4,-1.7 0.3,-3.5 0.5,-5.2 0.3,-2 0.4,-4 1.1,-5.9 0.2,-0.4 0.8,-0.2 0.7,0.2 z m 5.4,-24.3 c -3.1,5 -5.2,11.8 -6.5,17.4 -1.4,6.4 -3.7,14.3 -2.5,20.9 0,0 0,0.1 0,0.1 0.1,0.7 -0.5,1.1 -1,1 -0.3,0 -0.5,-0.2 -0.7,-0.6 -0.5,-1.5 -0.7,-3.1 -0.7,-4.8 -0.1,-5.4 1.8,-11.6 2.8,-16.3 1.3,-5.9 3.8,-13.8 7.9,-18.3 0.5,-0.1 1,0.3 0.7,0.6 z M 249,147.5 c -0.6,2.3 -1.8,4.5 -2.8,6.8 -2.1,4.8 -4,9.8 -7.7,13.6 -0.2,0.2 -0.5,-0.1 -0.4,-0.3 3.1,-4.3 5,-9 7.1,-13.8 1.6,-3.7 2.5,-6.4 3.2,-10.3 0.3,-1.6 0.6,-2.9 1.3,-4.4 0.2,-0.3 0.7,-0.1 0.6,0.2 -0.9,2.7 -0.6,5.5 -1.3,8.2 z m -7.2,1.2 c 1.8,-5 1.5,-10.6 1.8,-15.8 0,-0.2 0.3,-0.3 0.4,-0.1 0.7,4.9 0.2,11.3 -1.7,16 -0.2,0.3 -0.7,0.2 -0.5,-0.1 z m -0.1,-64.9 c 1.2,3.5 2.8,7.1 4.2,10.6 1.8,4.5 2.8,9.1 3.5,13.9 0.7,4.5 1.3,9.1 1.8,13.6 0.4,3.7 1,7.6 -0.4,11.2 -0.2,0.4 -1,0.4 -0.9,-0.1 1.1,-9.4 -0.3,-19 -2.2,-28.2 -0.8,-4 -2.1,-7.7 -3.5,-11.6 -1.1,-2.9 -2.7,-6.2 -2.9,-9.3 0,-0.3 0.3,-0.3 0.4,-0.1 z m -6.4,14.6 c 4.8,6.8 7.3,16.8 7.1,25 0,0.4 -0.6,0.5 -0.7,0.1 -1.5,-8.7 -2.6,-16.9 -6.9,-24.9 -0.1,-0.3 0.3,-0.5 0.5,-0.2 z m -3.7,76.3 c -8.3,6 -16.9,14 -22.7,22.4 -0.4,0.6 -1.4,0 -1,-0.6 5.9,-8.8 13.9,-17.3 23.3,-22.5 0.5,-0.2 0.8,0.4 0.4,0.7 z m 2.2,-9.8 c -0.5,0.5 -1.1,-0.2 -0.7,-0.7 1.5,-1.9 3,-6.9 3.7,-9.1 1,-3.5 1.3,-7.1 1.8,-10.7 0,-0.3 0.5,-0.3 0.5,0 -0.2,4.1 -0.4,8.4 -1.7,12.3 -0.9,2.5 -1.6,6.4 -3.6,8.2 z m 4.2,5.7 c -0.4,0.1 -0.5,-0.4 -0.2,-0.6 2.8,-1.9 5,-3.9 7,-6.6 0.2,-0.3 0.7,-0.1 0.6,0.3 -0.4,1.7 -1.7,3.1 -3,4.2 -1.3,1.1 -2.7,2.3 -4.4,2.7 z m 11.9,-6.5 c -1.4,2.8 -4.2,5.2 -7.1,6.1 -0.4,0.1 -0.5,-0.4 -0.2,-0.6 2.8,-1.1 5.2,-3.3 6.9,-5.7 0.2,-0.2 0.5,-0.1 0.4,0.2 z m 5.5,-6.9 c -0.1,0.2 -0.4,0.1 -0.4,-0.2 1.3,-3.6 3.1,-7.1 4.5,-10.7 1.4,-3.6 2.5,-7.3 3.8,-10.9 0.1,-0.3 0.6,-0.2 0.6,0.2 -1.4,7.2 -4.6,15.4 -8.5,21.6 z m 9.5,-33 c -1,2.3 -0.7,4.8 -1.6,7.1 -0.1,0.3 -0.6,0.3 -0.6,-0.1 0.1,-2.4 0.6,-5.2 1.7,-7.4 0.2,-0.2 0.7,0.1 0.5,0.4 z m 2.7,0.8 c -0.2,0.5 -0.8,0.3 -0.8,-0.2 0.8,-5.5 1,-11.7 -0.1,-17.2 -1,-4.5 -2.9,-8.7 -2.9,-13.4 0,-0.3 0.4,-0.3 0.4,-0.1 2,9.9 7.1,20.6 3.4,30.9 z"
   id="path27"
   inkscape:connector-curvature="0"
   style="fill:#ffffff" />
		<path
   d="m 180.9,177.1 c 0.4,1.4 1.5,1.4 2.3,2.3 1.8,2.2 1.2,5.7 1.9,8.2 0.5,1.8 1.5,3.8 2.2,5.6 0.2,0 0.4,0 0.7,0.1 -0.1,-0.2 -0.2,-0.5 -0.1,-0.7 0,-0.2 0.2,-0.3 0.4,-0.4 v 0 c 0,0 0,0 0,0 0,0 0,0 0,0 0,0 0,0 0,0 0,0 0,0 0,0 -0.4,-0.7 -0.6,-1.4 -0.5,-2.2 0.1,0 0.2,-0.1 0.2,-0.3 0,-0.1 0,-0.2 -0.1,-0.3 0,0 0,0 0,0 0.1,-0.1 0.3,-0.1 0.3,0 0.5,1.1 1,2 1.8,2.9 -0.1,-0.4 -0.2,-0.9 -0.2,-1.4 0,-0.6 1,-0.8 1.1,-0.1 0.1,0.7 0.3,1.3 0.7,1.9 -0.1,-1.3 0,-2.6 0,-3.8 0,-0.3 0.5,-0.4 0.6,-0.1 0.3,1.6 0.4,3.3 1.1,4.8 0,0.1 0.1,0.1 0.1,0.2 0.1,-1.1 0.2,-2.1 0.3,-3.1 0.1,-1.6 -0.1,-3.1 0.5,-4.6 0.1,-0.3 0.7,-0.3 0.7,0.1 -0.1,2 0.1,4.1 0.1,6.1 0,0 0,0 0,0 0.2,-1.8 0.5,-3.6 0.9,-5.4 0.1,-0.4 0.7,-0.4 0.8,0 0.2,1.2 0,2.4 -0.3,3.6 0.4,-0.5 0.8,-1 1.3,-1.5 0,-0.1 0.1,-0.1 0.1,-0.2 0,0 0,0 0,0 0,0.1 -0.1,0.1 -0.1,0.2 0.9,-1 1.8,-2 2.8,-3 0.6,-1.4 1.1,-2.8 1.7,-4.2 0.7,-1.7 1.3,-3.3 1.6,-5.1 0.3,-1.9 -0.1,-5.9 1.5,-7.3 0.3,0.1 0.7,-0.1 0.7,-0.5 0,0 0,-0.1 0,-0.1 0,-0.4 -0.5,-0.7 -0.8,-0.5 -2,1.2 -3.6,1.4 -5.7,0.8 -0.5,-0.1 -2.1,-1.1 -2.6,-1.2 -1.7,-0.2 -2.5,0.4 -3.9,1.2 0,0 -2.6,1.8 -2.4,1.7 -5.8,3.1 -3.2,0.3 -6.9,0.6 -1.3,0.1 -1.6,0.5 -2.4,1.4 -0.2,0.2 -0.1,0.5 0,0.6 -0.3,1.3 -0.7,2.7 -0.4,3.7 z m 15.2,-0.7 c 0.1,-1 0.2,-2.7 1.3,-3 0.3,-0.1 0.5,0.3 0.3,0.5 -1,1 -0.7,3.2 -0.7,4.5 0,2 -0.1,3.8 -1.1,5.5 -0.1,0.2 -0.3,0 -0.3,-0.1 0.4,-2.4 0.3,-4.9 0.5,-7.4 z m -6.1,-3.2 c 0,0 0,0 0,0 v 0 c 0.2,-0.2 0.4,-0.3 0.5,-0.5 v 0 c 0.2,0 0.5,0.1 0.5,0.5 0,3.1 -1.2,5.9 -0.9,9.1 0.2,2.3 0.9,4 0.4,6.4 -0.1,0.4 -0.8,0.5 -0.9,0 -0.2,-1.3 -0.1,-2.5 -0.3,-3.8 -0.2,-1 -0.5,-1.9 -0.5,-3 -0.3,-3.1 0.9,-5.6 1.2,-8.7 z"
   id="path29"
   inkscape:connector-curvature="0"
   style="fill:#ffffff" />
		<path
   d="m 265.5,206.4 c 1.4,-5.7 -3.4,-7.3 -5.7,-12 -1.3,-2.7 1.1,-9.5 -2.3,-11.7 -0.2,-0.1 -0.5,-0.1 -0.7,0 -0.1,0 -0.2,0.1 -0.3,0.1 -0.2,0 -0.4,0.1 -0.4,0.3 -0.9,6 -4.7,10.1 -6.6,15.6 -1,2.8 -1.2,5.8 -2.7,8.4 -0.9,1.6 -2.2,3 -3.5,4.2 -0.1,0.6 -0.3,1.1 -0.4,1.7 0.5,-0.3 1,-0.4 1.5,-0.2 0,0 0,0 0.1,0 0.3,-0.3 0.6,-0.6 0.9,-0.9 0.5,-0.5 1,-1 1.5,-1.5 0.8,-0.7 1.6,-1.2 2.7,-1.7 0.4,-0.2 0.8,0.3 0.7,0.7 -0.6,1.7 -2.5,3.4 -3.8,4.7 -0.2,0.2 -0.5,0.5 -0.8,0.8 0.8,-0.4 1.6,-0.9 2.5,-1 0.6,-0.1 0.7,0.7 0.4,1.1 -0.2,0.2 -0.3,0.4 -0.5,0.5 0.8,-0.5 1.7,-0.9 2.6,-0.7 0.3,0.1 0.6,0.6 0.4,0.9 -0.1,0.1 -0.2,0.2 -0.3,0.4 -1,0.4 -2.1,0.7 -3.1,1.1 -0.4,0.5 -1.1,0.6 -1.7,0.6 -1.2,0.4 -2.3,0.8 -3.4,1.3 -0.4,0.2 -0.1,0.9 0.3,0.7 8.4,-2.5 18.5,-4.3 23.3,-12.7 0.2,-0.3 -0.3,-0.8 -0.7,-0.7 z m -10.6,1.9 c -0.8,1.8 -2.6,3 -4.1,4.3 -0.5,0.5 -1.3,-0.3 -0.8,-0.8 1.4,-1.3 2.8,-2.9 4.5,-3.9 0.3,-0.2 0.6,0.1 0.4,0.4 z m 0.5,-8.9 c -0.2,0.2 -0.5,0.1 -0.6,-0.1 -0.3,-1.3 0.9,-2.5 1.3,-3.8 0.5,-1.6 0.9,-3.2 1.4,-4.7 0.1,-0.3 0.2,-0.6 0.3,-0.9 0.1,-0.3 0.6,-0.3 0.6,0.1 -0.1,1.5 -0.2,2.9 -0.5,4.3 -0.4,1.7 -1.1,3.5 -2.5,5.1 z m 3.9,4.5 c -0.1,0.4 -0.3,1 -0.6,1.2 -0.2,0.2 -0.6,0.1 -0.7,-0.2 -0.1,-0.5 0.1,-1 0.4,-1.4 0.3,-0.4 0.6,-0.8 1,-1.1 0.1,-0.1 0.2,0 0.2,0.1 0,0.5 -0.2,1 -0.3,1.4 z"
   id="path31"
   inkscape:connector-curvature="0"
   style="fill:#ffffff" />
		<path
   d="m 184.4,218.5 c 0,0 0,0 0,0 0,0 -0.1,0 0,0 -0.1,-0.1 -0.1,-0.1 0,0 0,-0.3 -0.1,-0.5 -0.3,-0.7 -0.1,-0.2 -0.3,-0.4 -0.6,-0.4 -0.3,-0.1 -0.6,-0.2 -0.9,-0.2 -0.9,0.1 -1.3,0.9 -1.2,1.7 0,0 0,0 0,0 0,0.5 0.5,1 0.9,1.1 0,0 0,0 0,0 0.8,0.2 1.7,0 1.9,-0.9 0.2,0 0.2,-0.3 0.2,-0.6 z"
   id="path33"
   inkscape:connector-curvature="0"
   style="fill:#ffffff" />
		<path
   d="m 217,231.8 c -0.8,0 -1.6,0.5 -1.6,1.3 v 0 c -0.1,0.8 0.5,1.6 1.3,1.6 0.8,0 1.6,-0.5 1.6,-1.3 v 0 c 0.1,-0.7 -0.5,-1.5 -1.3,-1.6 z"
   id="path35"
   inkscape:connector-curvature="0"
   style="fill:#ffffff" />
		<path
   d="m 233,215.7 c -1.1,0 -2.2,0.1 -3.2,0.2 -3.3,0.4 -6.4,1.7 -9,3.6 -0.7,0.5 -7.4,6.7 -6.8,8 0.1,0 0.2,-0.1 0.4,0 1.5,-1 3.9,-1.2 5.6,-0.7 3.2,0.9 5.4,3.8 4.7,7.1 -0.7,2.8 -3.1,4.7 -5.9,5 2.4,2.2 8.7,1.7 11,1.4 3.1,-0.5 6,-1.5 8.1,-3.8 2.2,-2.5 3.4,-6.2 3.6,-9.5 0.2,-3.5 0.1,-5.6 -2.1,-8.4 -2.3,-2.8 -3.2,-3 -6.4,-2.9 z"
   id="path37"
   inkscape:connector-curvature="0"
   style="fill:#ffffff" />
		<path
   d="m 192,197.1 c -9.8,-9 -30.2,12.5 -15.2,22 -0.8,-1.7 0.6,-4.8 1.7,-5.9 1.6,-1.6 4.7,-1.6 6.9,-0.5 0.1,0 0.3,0 0.4,0 1,-4.5 2.7,-8.8 4.8,-13 0.4,-0.9 0.9,-1.7 1.4,-2.6 z"
   id="path39"
   inkscape:connector-curvature="0"
   style="fill:#ffffff" />
	</g>
	<g
   id="g57"
   style="fill:#ffffff">
		<path
   d="m 66.3,179.7 c 0,0 0,0.1 0,0 0.1,0.4 0.1,0.8 0.2,1.2 0.7,-0.1 1.5,0.3 2.2,0.4 0.1,0 0.2,0 0.2,0 0,0 0,0 0,0 0,0 0.1,0 0.1,0.1 0.4,0.1 0.9,0.2 1.4,0.3 0,0 0,0 0,0 1.2,0.4 2.4,0.8 3.3,1.5 0.2,0.2 0.1,0.7 -0.2,0.7 -2,0.4 -4.1,-0.7 -5.9,-1.4 -0.3,-0.1 -0.7,-0.3 -1,-0.4 0,0.2 0,0.4 0.1,0.6 1.3,0.6 2.8,1 4.1,1.6 2.4,1 4.9,1.7 7,3.3 0.3,0.2 0.2,0.8 -0.3,0.7 -2.6,-0.8 -5.2,-1.6 -7.6,-2.9 -1,-0.5 -2.2,-1 -3.1,-1.7 0,0.2 0,0.3 0,0.5 1.2,0.4 2.3,1.4 3.4,2 1.8,1.1 3.5,2.2 5.2,3.4 0.3,0.2 0.1,0.7 -0.3,0.6 -0.9,-0.3 -1.6,-0.8 -2.5,-1.3 -0.9,-0.4 -1.8,-0.8 -2.7,-1.2 -1.1,-0.6 -2.2,-1.4 -3.2,-2.2 0,0.2 0,0.4 0,0.6 0,0.6 -0.1,1.2 -0.1,1.8 0.8,0.6 1.6,1.2 2.4,1.8 3.2,2.4 6.7,4.8 9.6,7.5 2.7,2.6 5.6,5.4 7.7,8.5 1.1,1.5 1.6,2.6 3.3,3.3 0.4,1 2,0.5 1.7,-0.6 -0.3,-1 -0.6,-2 -0.8,-3 -0.3,-1.3 -0.1,-2.4 -0.2,-3.7 -0.1,-1 -0.4,-2 -1,-2.8 0,-0.1 -0.1,-0.2 -0.2,-0.3 -0.1,-0.1 -0.2,-0.3 -0.4,-0.4 0,-0.1 0,-0.2 0,-0.3 -0.4,-1 -0.9,-2.1 -1.2,-3.1 -0.3,-1.2 -0.1,-2.3 0,-3.5 0,-0.1 0,-0.2 0,-0.3 0.6,0.4 1.5,-0.3 1.1,-1.1 0,-0.1 -0.1,-0.2 -0.2,-0.3 0.1,-0.3 0.1,-0.6 -0.1,-0.9 -2.1,-1.8 -2.1,-4.7 -2.4,-7.2 -0.2,-1.5 -0.9,-4.2 -3,-3.7 -0.5,0.1 -0.8,0.7 -0.5,1.2 0,0 0,0 0.1,0.1 -2.7,0.4 -5.3,1.1 -8,1.1 -2.8,0.1 -5.5,-0.5 -8.2,-0.5 z m 21.2,17.9 c 0.2,0.3 0.5,0.5 0.6,0.9 0,0.1 0,0.2 0,0.3 0.3,0.3 0,0.8 -0.4,0.8 -1.9,-1.5 -4,-2.8 -6,-4.3 -1.8,-1.4 -3.5,-3.1 -5.4,-4.4 -0.2,-0.1 -0.1,-0.4 0.1,-0.3 2.4,0.9 4.2,2.2 6.3,3.7 1.3,0.9 2.8,1.7 4.1,2.6 0,0 0,0 0,0 0.3,0.2 0.5,0.5 0.7,0.7 z M 79,186.1 c 2.1,0.6 4.2,1.4 6.3,2 0.1,0 0.2,0.1 0.2,0.1 0,0 0,0 0,-0.1 v 0 c 0,0 0,0 0,0.1 0,0 0,0 0,0 0,0 0,0 0,0 0.2,0.1 0.4,0.2 0.5,0.3 0.1,0.1 0.1,0.2 0.2,0.3 0.2,0.2 0.3,0.4 0.3,0.6 0,0.4 -0.3,0.5 -0.6,0.5 0,0 0,0 0,0 0,0 0,0 0.1,0 -0.7,-0.3 -1.4,-0.5 -2,-0.7 -1.7,-0.8 -3.4,-1.7 -5,-2.7 -0.4,-0.1 -0.3,-0.5 0,-0.4 z"
   id="path43"
   inkscape:connector-curvature="0"
   style="fill:#ffffff" />
		<path
   d="m 151.9,214 c 0.2,-0.5 0,-1 -0.3,-1.2 0,-0.5 -0.3,-1 -1,-1 -3.2,-0.3 -6,1.1 -8.7,2.6 -3.7,2 -7.4,3.7 -11.3,5.2 -8.6,3.1 -17.6,5.4 -26.6,6.4 -8.7,1 -17.6,1 -26.3,0 -4.2,-0.5 -8.6,-1 -12.8,-2.1 -4.5,-1.2 -7.9,-3.6 -11.7,-5.8 0,0 0,0 0,0 5.4,-4 7.3,-11.2 9.5,-17.3 1.5,-4.3 2.2,-8.8 2.9,-13.3 0.1,-0.9 0.1,-1.8 0.1,-2.7 0,-1.7 -0.2,-3.3 -0.4,-5 0,0 0,0 0,-0.1 -0.4,0 -0.8,0.1 -1.2,0.2 -0.1,0 -0.2,0.1 -0.3,0.1 -0.1,0 -0.2,0.1 -0.4,0.1 0,0 0,0 -0.1,0 -3.8,1.1 -9.2,-1.1 -12.1,-3.6 -3.8,-3.3 -6,-8.5 -5.4,-13.5 0,-0.2 0.1,-0.4 0.2,-0.5 -0.5,-2 0.5,-4.9 1.6,-6.3 1.5,-1.7 3.4,-2.4 5.3,-2.2 0,0 0,0 0,0 0,0 0,0 0,0 0,0 0,0 0,0 0,0 0.1,-0.1 0.1,-0.1 0.1,0 0.1,-0.1 0.2,-0.1 0.3,-0.2 0.5,-0.3 0.8,-0.4 0,0 0,0 0.1,-0.1 0.2,-0.1 0.4,-0.3 0.5,-0.4 -1.3,-2.4 -4.8,-5.3 -5.7,-6.1 -1.9,-2 -3.9,-3.6 -6.3,-5 -1.3,-0.7 -2.9,-2 -4.4,-1.8 -0.4,0.1 -0.6,0.5 -0.5,0.8 -0.1,0 -0.2,0 -0.3,0.1 -6.9,3.4 -11.7,10 -14.5,17.5 0,0 0,0 0,0 -0.3,0.9 -0.6,1.8 -0.9,2.8 -0.3,1 -0.6,2.2 -0.7,3.2 0,0.1 0,0.1 0,0.1 -0.9,3 -1.4,6 -1.5,9.1 0,0.3 0,0.6 -0.1,0.9 0,0.1 0,0.3 0,0.4 -0.1,2.1 0,4.1 0.2,6.1 0.1,0.8 0.2,1.5 0.3,2.3 0.1,0.4 0.2,0.7 0.3,1.1 0,0.1 0,0.2 0,0.3 0.2,1.1 0.3,2.4 0.6,3.5 0.3,1.1 0.7,2.2 0.9,3.3 0,0 0,0 0,0.1 0,0.1 0.1,0.3 0.1,0.4 3.9,12.1 12.2,23 24,27.6 -0.5,16 13.7,29 25.6,37.7 7.4,5.4 15.8,10 24.1,13.6 3.8,1.7 7.7,2.7 11.8,3.5 3.1,0.6 6.3,2 9.5,1.2 0.7,0.2 1.5,0.1 2.1,-0.7 0.4,-0.6 0.4,-1.3 0.6,-1.9 0.6,-1.8 1.6,-2.1 3,-2.9 3.6,-2.2 6.9,-6.5 6,-11 0,0 0,0 0,-0.1 -0.6,0 -1.1,-0.1 -1.7,-0.2 0,0 0,0 0,0 -4.8,-0.4 -9.7,-0.9 -14.5,-1.7 -5.8,-0.9 -11.4,-1.3 -17.1,-3.1 -4.9,-1.6 -9.6,-3.9 -14.2,-6.1 -10,-4.8 -18.4,-9.7 -24.8,-19 -0.1,-0.1 0.1,-0.3 0.2,-0.2 3.6,3.6 7.3,7.3 11.6,10 4.5,2.8 9.3,5 14.1,7.2 4.8,2.2 9.5,4.6 14.5,6.2 4.7,1.4 9.4,1.8 14.2,2.5 5.4,0.8 10.6,1.4 16,2.1 2.3,0.3 4.4,0.5 6.3,-0.2 1.5,-0.2 2.9,-0.5 4.3,-1 0.9,-1.6 1.5,-3.6 2.3,-5.2 0.8,-1.4 1.9,-2.8 2.2,-4.5 0.4,-2.1 -0.7,-4.2 -0.3,-6.3 0.5,-3 2.1,-3.7 3.8,-5.1 0.3,0.3 0.7,0.4 1.1,0.2 2.5,-1.5 3.6,-3.6 3.5,-6.5 0,-1.6 -0.4,-3.2 -0.7,-4.8 -0.4,-2.4 -0.8,-4.3 0.3,-6.6 0.8,-0.9 1.6,-1.7 2,-2.7 z M 33.5,192.9 c -1.9,-4 -2.9,-8.3 -3.3,-12.7 -0.3,-3.2 -0.3,-6.5 -0.2,-9.8 v 0 c 0,0 0,0 0,0 0.1,-2.2 0.2,-4.4 0.4,-6.5 0,-0.6 0.9,-0.6 0.9,0 -0.3,4.8 -0.6,9.6 -0.1,14.4 0.5,5 1.9,9.5 2.9,14.4 0,0.3 -0.4,0.5 -0.6,0.2 z m -0.1,-38.3 c -0.1,0.4 -0.8,0.3 -0.7,-0.1 0.3,-2.8 1.3,-5.9 2.4,-8.5 0.2,-0.6 0.5,-1.3 0.8,-2.1 0,0 0,0 0.1,-0.1 0.1,-0.1 0.2,-0.3 0.3,-0.4 0.3,-0.2 0.4,-0.5 0.6,-0.8 0.3,-0.4 0.6,-1.1 1.1,-1.3 0.3,-0.2 0.6,-0.1 0.8,0.1 0,0 0,0 0,0 0,0.1 0,0.2 -0.1,0.2 0,0.2 -0.1,0.4 -0.3,0.6 0,0 0,0 0,0 -0.9,1.4 -1.5,3.1 -2.2,4.7 -1.1,2.4 -2.4,5.1 -2.8,7.7 z m 15.9,65.1 c 0,0 0,0 0,0 -0.1,0.3 -0.5,0.5 -0.8,0.3 -0.1,0 -0.1,-0.1 -0.2,-0.1 0,0 0,0 0,0 -0.2,0.1 -0.3,0 -0.5,0 0,0 0,0 0,0 -0.2,-0.8 -0.4,-1.5 -0.7,-2.3 -0.6,-0.3 -1.1,-0.5 -1.7,-0.8 -0.2,-0.1 -0.3,-0.2 -0.5,-0.2 -0.4,-0.1 -0.7,-0.3 -1.1,-0.5 -0.1,0 -0.1,-0.1 -0.2,-0.2 0,0 0,0 -0.1,0 -0.8,-0.2 -1.6,-0.6 -2.2,-1.2 0,0 -0.1,0 -0.1,-0.1 0.2,0.1 0.3,0.2 0.5,0.4 -1,-0.8 -2.1,-1.5 -3.1,-2.3 -0.7,-0.5 -1.5,-1.3 -1.8,-2.2 0,0 0,-0.1 0.1,-0.1 1,0.4 1.6,1.3 2.4,1.9 0.9,0.6 1.7,1.1 2.5,1.7 0.9,0.7 1.8,1.2 2.7,1.8 -0.4,-0.4 -0.8,-0.9 -1.2,-1.3 -1.2,-1 -2.1,-2 -2.9,-3.4 -0.1,-0.2 0.2,-0.4 0.3,-0.2 0.9,1.1 1.8,2.1 2.9,3 0.4,0.3 0.7,0.7 1,1 -0.6,-0.8 -1.2,-1.7 -1.7,-2.4 -1.8,-2.6 -4,-5.6 -5,-8.7 -0.1,-0.4 0.5,-0.6 0.7,-0.2 1.2,2.9 3.5,5.7 5.4,8.3 1.8,2.4 4.3,4.4 5.9,6.9 0.3,0.6 -0.2,1.1 -0.6,0.9 z m 46.8,42.2 c 4.9,3.3 11.9,4.1 17.5,5.5 0.5,0.1 0.3,0.8 -0.1,0.8 -3.4,0.1 -6.8,-1.1 -10.1,-2 -2.8,-0.8 -5.5,-1.6 -7.8,-3.3 -0.6,-0.5 -0.1,-1.4 0.5,-1 z M 61.5,237.3 c 3.5,3.1 7.2,6.5 11.1,9 2.9,1.8 6.2,3.1 8.7,5.4 0.4,0.3 0,0.8 -0.4,0.8 -1.6,-0.3 -3,-1.5 -4.5,-2.3 -1.9,-1 -3.9,-2 -5.7,-3.3 -3.6,-2.5 -6.8,-5.7 -9.8,-9 -0.3,-0.5 0.2,-1 0.6,-0.6 z m 1.2,5 c 3.4,3.8 7.5,6.5 11.2,9.9 0.5,0.4 -0.1,1.1 -0.6,0.8 -5.7,-2.7 -10.2,-7.2 -14.1,-12.1 -3.1,-4 -6.5,-7.1 -7.2,-12.3 0,-0.3 0.4,-0.3 0.4,-0.1 1.7,5 6.8,9.9 10.3,13.8 z m 40.5,0.3 c -7.3,-0.2 -15.6,-2.9 -22.6,-5 -0.3,-0.1 -0.1,-0.5 0.1,-0.4 7.4,2.1 15.2,2.4 22.7,4.3 0.5,0.2 0.4,1.2 -0.2,1.1 z M 70.7,230.3 c 4.5,0.9 9.1,1.9 13.7,2.2 4.9,0.3 9.8,-1 14.6,-0.5 0.4,0 0.6,0.7 0.1,0.8 -5.3,1.1 -11.2,1.4 -16.5,0.9 -4,-0.4 -8.6,-0.7 -12.1,-2.8 -0.3,-0.2 -0.1,-0.6 0.2,-0.6 z m 42.9,21 c -10.5,-2.1 -20.8,-4.9 -31,-8 -8.1,-2.5 -17.2,-6.9 -22.5,-13.6 -0.1,-0.2 0.1,-0.4 0.3,-0.3 7,6.8 16.9,10.8 26,13.7 9,2.8 18.8,3.8 27.5,7.3 0.4,0.3 0.2,1 -0.3,0.9 z m 22.7,-14.8 c -4.5,2.1 -9.2,2.2 -14,2.5 -3.9,0.3 -8,1.5 -11.7,-0.2 -0.4,-0.2 -0.1,-0.8 0.3,-0.7 3.8,0.9 7.6,-0.2 11.4,-0.5 4.6,-0.4 9.2,-0.8 13.7,-2 0.5,-0.2 0.9,0.7 0.3,0.9 z"
   id="path45"
   inkscape:connector-curvature="0"
   style="fill:#ffffff" />
		<path
   d="m 33.9,221.8 c -1.9,-4.9 -2.3,-9.5 -5.1,-14.1 -2.8,-4.5 -6.2,-8.3 -6.5,-13.3 -0.2,-0.5 -0.4,-1 -0.5,-1.6 -0.1,-0.1 -0.2,-0.1 -0.2,-0.3 0,-0.2 -0.1,-0.4 -0.1,-0.6 0,0 0,0 0,0 -0.1,-0.2 -0.1,-0.4 -0.2,-0.6 0,-0.1 0,-0.1 0,-0.2 -0.9,1.6 -1.9,3.2 -2.3,4.6 -0.1,0.2 -0.4,0.2 -0.4,0 0.2,-1.6 0.7,-3 1.2,-4.5 0.3,-0.8 0.5,-1.6 0.7,-2.4 0,0.1 -0.1,0.2 -0.1,0.3 -1.2,2.3 -3,4.8 -3,7.5 0,0.4 -0.6,0.5 -0.7,0.1 -0.7,-2 0.3,-4 1.3,-5.8 0.2,-0.4 0.5,-0.9 0.7,-1.3 -0.4,0.4 -0.7,0.7 -0.8,0.8 -0.3,0.3 -0.9,0.1 -0.8,-0.3 0.1,-0.9 0.6,-1.7 1.2,-2.4 -0.3,0.3 -0.6,0.6 -0.8,1 -1.4,2.2 -2.1,4.5 -2.7,7 -0.1,0.3 -0.7,0.4 -0.7,0 -0.5,-3.2 1.1,-6.2 3.3,-8.6 0.2,-0.2 0.4,-0.3 0.6,-0.5 0.5,-0.7 1.2,-1.2 2,-1.3 0,0 0.1,0 0.1,0 0,-0.1 0,-0.3 -0.1,-0.4 -0.6,0.3 -1.4,0.2 -2.1,0.2 -0.1,0 -0.2,0 -0.3,0 0,0 0,0 0.1,0 -3.9,1.3 -6,3.5 -7.6,7.2 -0.8,2 -1.1,3.6 -1.2,5.7 -0.1,2.7 -0.8,5.2 -1,7.9 0,0.3 0.2,0.5 0.5,0.5 1.2,2.3 1.3,5.6 4,6.5 0.3,0.1 0.5,0 0.7,-0.2 0.8,1.2 2.3,1.8 3.6,2.5 2.4,1.3 6,3.1 7.7,5.6 0.1,0.3 0.2,0.5 0.5,0.7 0.4,0.4 1,0 0.9,-0.5 -0.1,-0.4 -0.3,-0.8 -0.5,-1.2 0,-0.4 0,-0.8 0,-1.2 1.2,0.3 2.3,0.8 3.4,1.6 1.4,1 2.8,2.3 4,3.5 0.3,0.3 0.8,0.3 1.1,0 0.2,-0.2 0.3,-0.4 0.3,-0.7 0,-0.2 -0.2,-0.4 -0.4,-0.6 0.1,0 0.3,-0.2 0.2,-0.6 z M 13.6,205 c -0.3,2.1 -0.7,4 -0.6,6 0,0 0,0 0,0 0,0 0,0 0,0 0,0 0,0.1 0,0.1 0,0 0,0 0,0.1 0,0 0,0 0,0 -0.1,0.3 -0.3,0.6 -0.6,0.6 -0.2,0.1 -0.5,0 -0.6,-0.3 0,0 0,0 0,0 0,0 0,0 0,0 0,0 0,0 0,0 0,0 0,-0.1 0,-0.2 0,0 0,0 0,0 -0.1,-1.6 0.1,-3.2 0.3,-4.8 0.2,-1.7 0.3,-3.1 0.1,-4.8 -0.1,-0.8 -0.1,-1.2 0.1,-1.9 0.1,-0.5 0.9,-0.5 1,0 0.2,1.7 0.5,3.4 0.3,5.2 z m 11.3,12.6 c -0.1,0.5 -0.8,1 -1.3,0.7 0,0 0,0.1 0.1,0.1 -0.2,-0.2 -0.3,-0.5 -0.2,-0.7 -0.3,-1.2 -0.7,-2.3 -1.2,-3.5 -1.6,-4.1 -3.8,-7.9 -3.7,-12.4 0,-0.6 0.8,-0.6 0.9,-0.1 0.9,2.5 1.2,4.9 2.3,7.4 0.5,1.2 1,2.3 1.5,3.5 0.6,1.5 1.3,3 1.7,4.6 0,0 0,0 0,0 0,0 0,0.2 -0.1,0.4 z"
   id="path47"
   inkscape:connector-curvature="0"
   style="fill:#ffffff" />
		<path
   d="m 19.6,183.7 c -0.7,-2.9 -0.7,-6.3 -0.6,-9.2 0,-2.2 0.3,-4.3 0.7,-6.4 -1.4,-0.2 -3,-1 -3.7,-1.6 -2.3,-1.9 -3.3,-6.7 -0.9,-8.8 -2.7,0.2 -5.3,1.4 -6.8,3.5 -2.1,2.9 -2.7,7.2 -2.5,10.6 0.2,3.2 0.7,6.2 3.2,8.6 2.3,2.4 7.1,4 10.6,3.3 z"
   id="path49"
   inkscape:connector-curvature="0"
   style="fill:#ffffff" />
		<path
   d="m 20,161 c 0.3,0 0.5,0 0.7,-0.1 0,0 0,0 0,0 0,0 0,0 0,0 0.6,-0.3 0.8,-1 0.6,-1.6 0,-0.1 0,-0.1 -0.1,-0.2 0,-0.1 -0.1,-0.1 -0.1,-0.1 0,0 -0.1,-0.1 -0.1,-0.1 -0.1,-0.1 -0.1,-0.1 -0.2,-0.1 0,0 -0.1,-0.1 -0.1,-0.1 -0.1,-0.1 -0.3,-0.1 -0.4,-0.1 -0.1,0 -0.2,0 -0.3,0 -0.1,0 -0.2,0 -0.2,0 -1.2,0.3 -1.2,2.2 0.2,2.4 z"
   id="path51"
   inkscape:connector-curvature="0"
   style="fill:#ffffff" />
		<path
   d="m 55.2,166 c -2,0.7 -5.2,0.4 -7.3,-1 0.5,3.5 1.7,6.8 4.3,9.3 1.6,1.5 3.3,2.3 5.4,3 0.7,0.2 1.9,0.7 3.1,1 2.9,-0.1 6.5,-1.2 8.4,-2.3 4.9,-2.9 6.6,-11 3.3,-15.7 -4.3,-5.9 -10.6,-6.2 -17,-5.4 0.8,0.5 1.6,1.1 2.2,1.9 2.3,2.9 1.3,7.9 -2.4,9.2 z"
   id="path53"
   inkscape:connector-curvature="0"
   style="fill:#ffffff" />
		<path
   d="m 51.6,159.9 c 0.1,0 0.1,0 0.2,0 0,0 0.1,0 0.1,0 1.2,0 1.6,-1.5 0.8,-2.2 -0.1,-0.1 -0.1,-0.1 -0.2,-0.1 -0.1,-0.1 -0.3,-0.1 -0.5,-0.1 -0.2,0 -0.3,0 -0.4,0 0,0 -0.1,0 -0.1,0 -0.1,0 -0.2,0.1 -0.2,0.1 0,0 -0.1,0 -0.1,0.1 -0.1,0.1 -0.1,0.1 -0.2,0.2 0,0 0,0 0,0.1 -0.1,0.1 -0.1,0.2 -0.2,0.3 -0.1,0.3 -0.1,0.7 0,1 0,0.1 0.1,0.3 0.2,0.4 0.2,0.1 0.3,0.2 0.6,0.2 z"
   id="path55"
   inkscape:connector-curvature="0"
   style="fill:#ffffff" />
	</g>
</g>
</svg>